<svg width="1280" height="420" viewBox="0 0 1280 420" fill="none" xmlns="http://www.w3.org/2000/svg">
  <defs>
    <linearGradient id="bg" x1="0" y1="0" x2="1280" y2="420" gradientUnits="userSpaceOnUse">
      <stop offset="0" stop-color="#0F172A"/>
      <stop offset="0.55" stop-color="#0E7490"/>
      <stop offset="1" stop-color="#F97316"/>
    </linearGradient>
    <filter id="shadow" x="-20%" y="-20%" width="140%" height="140%">
      <feDropShadow dx="0" dy="12" stdDeviation="16" flood-color="#000000" flood-opacity="0.35"/>
    </filter>
  </defs>

  <rect width="1280" height="420" rx="36" fill="url(#bg)"/>

  <circle cx="1080" cy="80" r="180" fill="#FFFFFF" opacity="0.08"/>
  <circle cx="1120" cy="350" r="140" fill="#FFFFFF" opacity="0.08"/>
  <circle cx="140" cy="320" r="180" fill="#FFFFFF" opacity="0.06"/>

  <g filter="url(#shadow)">
    <rect x="78" y="76" width="238" height="260" rx="24" fill="#0F172A" opacity="0.72" stroke="#FFFFFF" stroke-opacity="0.28" stroke-width="2"/>
    <rect x="128" y="140" width="138" height="196" rx="12" fill="#E2E8F0" opacity="0.96"/>
    <rect x="153" y="170" width="30" height="30" rx="4" fill="#0E7490"/>
    <rect x="210" y="170" width="30" height="30" rx="4" fill="#F97316"/>
    <rect x="153" y="222" width="30" height="30" rx="4" fill="#F97316"/>
    <rect x="210" y="222" width="30" height="30" rx="4" fill="#0E7490"/>
    <rect x="153" y="274" width="87" height="62" rx="6" fill="#0F172A"/>
    <path d="M104 336H292" stroke="#FFFFFF" stroke-opacity="0.65" stroke-width="8" stroke-linecap="round"/>
    <path d="M118 116H276" stroke="#F97316" stroke-width="10" stroke-linecap="round"/>
  </g>

  <text x="365" y="145" fill="white" font-size="64" font-family="Arial, Helvetica, sans-serif" font-weight="800">GoTell</text>
  <text x="365" y="205" fill="#FEF3C7" font-size="34" font-family="Arial, Helvetica, sans-serif" font-weight="700">Smart Hotel Management System</text>
  <text x="365" y="265" fill="#E0F2FE" font-size="25" font-family="Arial, Helvetica, sans-serif">C++ Console App • Role-Based Login • Hotel Operations</text>

  <g font-family="Arial, Helvetica, sans-serif" font-size="22" font-weight="700">
    <rect x="365" y="305" width="142" height="42" rx="21" fill="#0F172A" opacity="0.55"/>
    <text x="392" y="333" fill="#FFFFFF">Manager</text>

    <rect x="524" y="305" width="174" height="42" rx="21" fill="#0F172A" opacity="0.55"/>
    <text x="548" y="333" fill="#FFFFFF">Receptionist</text>

    <rect x="715" y="305" width="184" height="42" rx="21" fill="#0F172A" opacity="0.55"/>
    <text x="739" y="333" fill="#FFFFFF">Housekeeping</text>
  </g>

  <text x="1000" y="356" fill="#FFFFFF" opacity="0.85" font-size="20" font-family="Arial, Helvetica, sans-serif">Built with C++</text>
</svg>
